<svg id="chaos-fav" data-name="chaos-favicon" xmlns="http://www.w3.org/2000/svg" viewBox="0 0 164.41 164.41">
    <title>favicon</title>
    <path fill="white"
          d="M160.36,84.18a2.23,2.23,0,0,0-.91-.54,1.33,1.33,0,0,0-1.49.29c-1.81,2.4-1.82,5.46-4.85,9.06-1.61,1.92-2.11,1.46-2.88-.94l-.23-.56a28.8,28.8,0,0,0-8.46-10.41c-.69-.5-1.13-1.28-.47-2a20.72,20.72,0,0,0,4-6.15,21.22,21.22,0,0,0,1.44-6.62,15.1,15.1,0,0,0-.24-3.15c-.17-1-.6-1.85-.8-2.82a11.73,11.73,0,0,1-.11-4.34c.22-1.37.82-2.68,1-4.07a25.54,25.54,0,0,0,.18-5c-.06-1.66-.09-3.31-.31-5a30.22,30.22,0,0,0-2-7.71,39.37,39.37,0,0,0-8-12.84,33.14,33.14,0,0,0-12.62-8c-2.57-.92-5.33-1.27-8-2-7.32-1.88-14.57-.65-21.75.72-3.3.63-6.4,2.26-9.62,3.37a43.5,43.5,0,0,0-12,6.89,4.56,4.56,0,0,1-3.36,1c-7.5-.51-14.72.35-21.65,3.63A38.3,38.3,0,0,0,35,36c-2.86,3.18-5.47,6.57-5.9,11.07-.45,4.79.85,8,6.2,10.18,2.36,1,4.71.88,7.11,1a3.45,3.45,0,0,1,2.18.88A19.87,19.87,0,0,1,46.26,62a19.79,19.79,0,0,0,7.49,6.72,3,3,0,0,1,1.36,2c.07,1.07-2.13,3.22-2.78,3-.4-.15-.64-.76-.88-1.21-1.16-2.13-2-4.51-3.51-6.35a18.72,18.72,0,0,0-8.47-5.77c-4.6-1.62-9.15-1.67-13.31.79a14.27,14.27,0,0,0-6.81,11.22c-.33,3.2.28,6.48.44,9.73,0,.41.1,1.22-.42,1.39-.24.07-.55-.1-.76-.18l-1-.38a27.91,27.91,0,0,0-2.9-.93A33,33,0,0,0,9.1,81.2a1.27,1.27,0,0,0-1.18.7A2.33,2.33,0,0,0,8,84.25c.25.29.82.19,1.2.23a20.49,20.49,0,0,1,4.19.85c1.23.46,2.37,1.13,3.58,1.64a10.06,10.06,0,0,0,1.86.59,9.57,9.57,0,0,1,1.82.41,2.36,2.36,0,0,1,.48.29,4.7,4.7,0,0,1,1.18,2.11A10.91,10.91,0,0,0,23,92.22a4.12,4.12,0,0,1,.8,1.77,2,2,0,0,1-.44,1.23c-.44.6-1,1-1.39,1.68A16.88,16.88,0,0,0,20.79,99a20.83,20.83,0,0,0-2,7.13,22.91,22.91,0,0,0-.1,2.75,32.87,32.87,0,0,0,4.42,14.8,67.72,67.72,0,0,0,4.65,7.18,67.41,67.41,0,0,0,5.15,6.5,41.12,41.12,0,0,0,9.5,7.73,23.93,23.93,0,0,0,7,3,12.9,12.9,0,0,0,8.7-.88,13.1,13.1,0,0,0,6.08-5.49,1.87,1.87,0,0,1,2.52-1c1.37.45,2.66,1.16,4,1.53,1.93.51,3.86,1,5.8,1.43.88.2,1.76.4,2.65.54a6.47,6.47,0,0,1,2.35.67,6.57,6.57,0,0,1,1.59,1.73A12.58,12.58,0,0,0,85,148.35a21.41,21.41,0,0,0,6.19,3.75,20.51,20.51,0,0,0,5.34,1.34c.83.09,1.63.38,2.46.53s1.94.32,2.91.42a12.91,12.91,0,0,0,4.86-.85,31.46,31.46,0,0,0,7.65-3.42,24,24,0,0,0,8.5-9.8,13.75,13.75,0,0,0,1.64-4.88,5.28,5.28,0,0,1,2.17-3.91,22.75,22.75,0,0,0,5.85-6.86,6,6,0,0,1,2.56-2c1.47-.78,3.15-1.19,4.54-2.08a24.31,24.31,0,0,0,8.47-9.13,27.55,27.55,0,0,0,3.45-10.93,3.08,3.08,0,0,1,.84-2.17c.42-.37.73-.85,1.13-1.23a11.19,11.19,0,0,0,1.11-1.28,21.26,21.26,0,0,0,1.77-3c.53-1,3.4-6.11,4-7.09C160.51,85.63,160.79,84.61,160.36,84.18Zm-18.2-15a12.8,12.8,0,0,1-4.57,7.6,2.51,2.51,0,0,1-2.2.38c-1.76-.94-3.35-2.19-5-3.26-1-.67-.95-1.13,0-1.84q4.3-3.17,8.49-6.5a36.43,36.43,0,0,0,2.81-2.75l.58.28C142.24,65.15,142.58,67.26,142.16,69.2Zm-35.63,47.63c-2.52.46-5,.71-7.45,1.81-1.63.75-2.12.25-1.52-1.52a56.75,56.75,0,0,1,2.89-6.71c.24-.48,1.06-.67,1.88-1.14a41.24,41.24,0,0,1,5.57,2.88C109.41,113.23,108.41,116.49,106.53,116.83Zm-.06,6c-.63,1.48-1.18,2.74-1.73,4a3.79,3.79,0,0,1-.3.4c-1.64,2.67-2.1,2.72-4.28.32a19.25,19.25,0,0,1-2-2.64c-.76-1.2.49-1.74,1.12-2a47.06,47.06,0,0,1,6.16-2c.19-.05.43.11.7.32A1.36,1.36,0,0,1,106.47,122.84ZM89.31,103c-1.63,0-3.27,0-4.9,0-5.26.23-9.6,2.24-12.74,6.6-.29.4-.9.56-1.53.93A10.47,10.47,0,0,1,74.81,99.4c3.58-2.32,7.61-3.41,11.61-4.59a2,2,0,0,1,1.76.46,46.35,46.35,0,0,1,2.65,5.94C91.24,102.34,90.57,103,89.31,103Zm1.31,4.46a13,13,0,0,1-1.32,3.49,70.21,70.21,0,0,1-6,7.08,6.86,6.86,0,0,1-7.59,1.78,6.77,6.77,0,0,1-3.19-3c-.34-.63.5-2.06,1.06-3,1.53-2.52,3.4-4.81,6.33-5.75,2.21-.71,3.83-.68,6.1-1.22.3,0,1-.1,1.1-.08ZM65.93,58.92a14,14,0,0,1,.2-8.8c2.36-6.8,7.36-11.47,12.74-15.84a17.63,17.63,0,0,1,2.52-1.65c1.71-1,4.52-.18,6.17,1.71-2,1.55-4.08,2.9-5.85,4.56a19.43,19.43,0,0,0-6.14,10.32,33.46,33.46,0,0,0-1,5.08,13.76,13.76,0,0,0,3,9.38,2,2,0,0,1,.21,2.6,12.07,12.07,0,0,0-.89,2.33,1.41,1.41,0,0,1-2.24.87C70.73,66.78,67.38,63.51,65.93,58.92ZM74.27,74.8c-.38.1-.85.41-1.13.29a26.56,26.56,0,0,1-2.93-1.57q-4.06-2.47-8.1-5c-.3-.19-.77-.54-.75-.78.16-2,.42-3.94.65-5.91l.48-.11c.9,1.38,1.82,2.73,2.69,4.13a23,23,0,0,0,6.72,6.43,22.87,22.87,0,0,1,2,1.52C74.13,74,74.15,74.46,74.27,74.8ZM127.53,57c-.38-2.06-.82-4,.88-5.84,1-1.08,1.56-2.57,2.44-3.79a1.45,1.45,0,0,1,1.36-.28,21.13,21.13,0,0,1,7.55,8.15c1.22,2.22-.27,4-1.71,5.36-2.69,2.57-5.6,4.91-8.44,7.33-.22.19-.76.36-.86.26a1.59,1.59,0,0,1-.39-1c0-1,.08-1.91.13-2.86C128.58,64.31,128,59.41,127.53,57Zm1-16.55a1.58,1.58,0,0,1-1.33.52,39.53,39.53,0,0,0-5.09-.8,5.27,5.27,0,0,1-3.67-1.64c-2.28-2-4.42-4.21-7-5.63a18.62,18.62,0,0,0-11.87-2.26c-1.89.29-3.76.72-5.64,1.08a1.53,1.53,0,0,1-.82,0c-1.63-.7-3.23-1.43-5.33-2.37a24.19,24.19,0,0,1,3.07-1.66c6.73-2.33,13.54-3.82,20.79-3.08a26.49,26.49,0,0,1,11.77,4A11.33,11.33,0,0,1,129.07,38,5.4,5.4,0,0,1,128.54,40.44Zm-1.67,5.32c.06.37-.28.8-.67,1.24a1,1,0,0,1-1.53-.1A20.87,20.87,0,0,1,123.49,45c-.06-.1.26-.4.67-.82a.85.85,0,0,1,1.13-.06C126,44.7,126.77,45.18,126.87,45.76ZM92.21,70c1.73,0,2.6.62,3,2.45a21.28,21.28,0,0,0,2,4.94c.82,1.66.46,2.36-1.36,2.74a35.14,35.14,0,0,0-4,1.34c-.81-.51-1.73-1-2.59-1.63-2.77-2-5.5-4-8.28-6-1.38-1-1.61-1.89-.75-3.37A8.16,8.16,0,0,0,81,68.62c.34-1.19,1.18-1.64,2.28-1A17.49,17.49,0,0,0,92.21,70Zm-7.75-8.39a14.85,14.85,0,0,1,3.24-3.53,14.55,14.55,0,0,1,5-1.74c1.59-.3,2.08.71,1.71,2.28a25.22,25.22,0,0,0-.62,5c-.09,2.45,0,2.45-2.5,2.65-2.06-.64-4.15-1.16-6.16-1.93C83.52,63.69,83.38,62.93,84.46,61.58Zm18.09,25.2c.08.25-.19.9-.36.92-1,.13-2.17.5-2.9.09a23.4,23.4,0,0,1-3.66-3.11C99,82.77,101.49,83.66,102.55,86.78ZM97.68,64.33c.08-1.41,0-2.83.2-4.22a2.31,2.31,0,0,1,1-1.56c.29-.17,1.1.27,1.49.63,1.64,1.48,3.2,3,4.79,4.55l-.36.62c-1.82.5-3.63,1.06-5.47,1.48C98.19,66.09,97.61,65.52,97.68,64.33Zm4.13,13.48c-1-2-1.88-4-2.78-6a6.44,6.44,0,0,1-.19-1.1,5.19,5.19,0,0,1,1.26-.83c2.13-.67,4.32-1.14,6.4-1.92,1.48-.56,1.83.67,2.33,1.31a33.38,33.38,0,0,1,2.61,4.29c.79,1.43.3,2.27-1.27,2.67-2.27.57-4.5,1.32-6.77,1.9C102.91,78.21,102,78.11,101.81,77.81Zm7.94-15.45a10.2,10.2,0,0,1-1.65-1c-2.19-2.08-4.31-4.23-6.53-6.27-1-.88-1.48-1.53-.26-2.63,1-.89,1.75-2,2.7-3s1.9-.61,2.55.55c1.6,2.87,3.29,5.68,4.9,8.55.32.59.78,1.55.54,1.91A10.19,10.19,0,0,1,109.75,62.36Zm-9-25.79a23.29,23.29,0,0,1-1.45-1.83l1.74-.67a22.17,22.17,0,0,1,12.55,5c.75.58.45,1.1-.26,1.39-.93.37-1.9.65-2.87.95a8.59,8.59,0,0,0-1.45.39c-2.35,1.16-2.27,1.11-3.93-.82C103.71,39.42,102.15,38.06,100.72,36.57Zm11.11,15c-.72-1.23-1.37-2.51-2.13-3.72-.61-.95-.59-1.84.5-2.18,2-.62,4-1,6-1.5a2.52,2.52,0,0,1,2.92,1.45,47,47,0,0,1,2.63,4.83,2.63,2.63,0,0,1-.66,3.48c-1.63,1.34-3.15,2.82-5.09,4.58C114.5,56,113.16,53.76,111.83,51.52ZM92.08,36.59c1.64-.83,2.84.58,3.88,1.42,2.18,1.74,4.12,3.78,6.18,5.67.91.83.63,1.48-.1,2.27-1.65,1.81-3.21,3.7-4.84,5.53a2.94,2.94,0,0,1-2.87,1.15C88.58,52,84.11,54.24,81.1,59.26c-.17.29-.37.55-.57.83,0,0-.1,0-.37.18-2-2.56-2.1-5.51-1.42-8.35a20.68,20.68,0,0,1,4.88-9.41A29.36,29.36,0,0,1,92.08,36.59ZM77.57,77.51c.67-.55.87-.42,1.21-.21,1.66,1,3.26,2.15,4.88,3.24a7.38,7.38,0,0,1,1.25.84c.34.33.82.93.71,1.21-.19.49-.78.83-1.24,1.26-.71-.49-1.28-.83-1.8-1.25-1.58-1.25-3.17-2.51-4.69-3.84C77.56,78.47,77.45,78.39,77.57,77.51Zm7,13.27c-.08.34-.63.7-1,.81-4.9,1.29-9.62,3-13.42,6.46-1.8,1.64-3.34,3.59-3.4,6.27a3,3,0,0,1-.59,1.66c-1.19-3.3-2.37-6.6-3.71-10.34,1.66-.81,3.41-1.8,5.26-2.52,3.31-1.28,6.69-2.42,10-3.59,1.31-.46,2.65-.86,4-1.22C82.71,88,84.76,89.77,84.52,90.78Zm6.16-.67a.89.89,0,0,1-.46.13c-.31,0-.55-.38-.75-.59a22.39,22.39,0,0,1-1.64-1.87,1.44,1.44,0,0,1-.3-.52c-.18-.84,1.31-1.11,1.86-1.16a3.32,3.32,0,0,1,2.39.6,16.82,16.82,0,0,1,1.87,2.08C92.66,89.22,91.64,89.6,90.68,90.11Zm3.37,3,.34,0,3.5-.22a3.14,3.14,0,0,1,1.16.62q2.4,2.58,4.63,5.29a1.43,1.43,0,0,1-.25,2.22,19.94,19.94,0,0,0-1.89,1.9,4.13,4.13,0,0,1-5.94.47,2.18,2.18,0,0,1-.57-1c-.8-2.3-1.53-4.63-2.37-6.92C92.18,94.12,92.62,93.28,94.05,93.09Zm10.86,12.27a9.73,9.73,0,0,1,1.15-1.06,23.44,23.44,0,0,1,2.11,2.08c-.81.27-1.35.64-1.57.5A12,12,0,0,1,104.91,105.36Zm3.58-9.1a1.64,1.64,0,0,1-.68.43l-.16,0a1.15,1.15,0,0,1-.61-.26,7.82,7.82,0,0,1-1.16-1.21l-1.64-2-.41-.5-.2-.25c0-.06-.12-.1-.15-.17s0-.09.11-.13l.13-.08L104,92c.18-.08.37-.16.57-.23a2,2,0,0,1,1.21,0,4.16,4.16,0,0,1,1.47,1.19,14.7,14.7,0,0,1,1.58,1.47,1.33,1.33,0,0,1,.34.88A1.7,1.7,0,0,1,108.49,96.26Zm-3.75-13.37c-.33-.9,0-1.17.82-1.41,2.5-.72,5-1.62,7.49-2.21a2.67,2.67,0,0,1,2.14,1,25.74,25.74,0,0,1,1.91,3.4c.22.42.48.84.67,1.28a7.36,7.36,0,0,0-1,.25l-1.08.26-2.17.52-1.82.42a10.67,10.67,0,0,1-1.51.08A4.93,4.93,0,0,1,104.74,82.89Zm9.76-11.67a22.66,22.66,0,0,0-2.2-3.71c-.66-.88-.69-1.72.13-2.16s2.52-1,2.93-.61A84.29,84.29,0,0,1,121,71.2a2.82,2.82,0,0,1,.26.71,28.72,28.72,0,0,1-2.82,1.52C116.61,74.16,115.63,73.51,114.5,71.22Zm6,5.4a1.19,1.19,0,0,1,1.06,0,1.12,1.12,0,0,1,.17,1c-.41.88-.94,1.7-1.57,2.8l-1.84-2.38C119.13,77.52,119.78,77,120.49,76.62Zm-1.87-14.77c-.1-.18.29-.76.58-1,.9-.83,1.85-1.61,2.79-2.4.72-.6,1.66-1,2,.16.81,3,.42,6,.38,9.56A16.24,16.24,0,0,1,118.62,61.85Zm5.18,20.72c.68-1.82,1.39-3.63,2.21-5.39a1.35,1.35,0,0,1,1.25-.43,36.86,36.86,0,0,1,4,2.47,1.89,1.89,0,0,1,.57,1.3c0,.21-.47.57-.79.69-2.07.8-4.16,1.55-6.24,2.32l-.79.21C123.9,83.32,123.68,82.88,123.8,82.57ZM77.14,23.68c3.67-1.87,7.3-3.85,11.09-5.44a47.35,47.35,0,0,1,23.71-3.48,37.34,37.34,0,0,1,17,5.78,29.17,29.17,0,0,1,9.48,10.2c1.34,2.39,1.82,5.24,3,7.75,1.59,3.45,1.2,7,1.24,10.62a8.76,8.76,0,0,1-.44,2c-1.68-1.77-3.08-3.41-4.66-4.85-1.31-1.19-2.9-2.08-4.23-3.26a2.48,2.48,0,0,1-.66-1.95c1.14-6.29-1-11.21-6-15-6.33-4.79-13.64-5.78-21.32-5.5a42.45,42.45,0,0,0-11.08,1.82c-3.69,1.15-7.17,3-10.75,4.54-.3.13-.68.42-.92.33q-2.85-1.07-5.63-2.32C76.79,24.87,76.9,23.81,77.14,23.68ZM71,28.85a3.36,3.36,0,0,1,2.27-.47,8.31,8.31,0,0,1,2.77.66,2.78,2.78,0,0,1,1.14,1.33c.06.12-.6.64-1,.92a53,53,0,0,0-9.46,9.29,34.54,34.54,0,0,0-4.95,10A17.76,17.76,0,0,0,61.38,54l-.54,0a29.33,29.33,0,0,1-1.68-3.18c-.65-1.66,1.1-2.42,1.6-3.66.66-1.64,1.67-3.13,2.23-4.79A33,33,0,0,1,71,28.85ZM43.56,50.72c-.32,3.77-.32,3.77-4.19,3.61-3-.13-5.93-1.94-6.27-4.41a9.79,9.79,0,0,1,.75-5.36A28.83,28.83,0,0,1,44.14,33.32a40.62,40.62,0,0,1,10.72-4.86c3.22-1,6.41-1,9.65-1.2a11.33,11.33,0,0,1,2,.25,64.83,64.83,0,0,0-3.81,5.88c-1.36,2.67-2.37,5.52-3.63,8.25A28.06,28.06,0,0,1,56.63,46c-.24.34-1.25.36-1.81.21a8.46,8.46,0,0,1-2.22-1.13C48.66,42.52,43.92,46.66,43.56,50.72Zm4,1.68c-.38-2.21.56-3.35,1.85-3.91.64-.28,1.73.28,2.55.62s.9,1,.12,1.51a33.63,33.63,0,0,1-3.5,2.2C48.3,53,47.68,52.45,47.57,52.4Zm1.51,6.92c-1-1.61-.8-2,1.5-3.3,1.36-.75,2.71-1.5,4-2.33,1-.63,1.63-.6,2,.68.61,2.29,1.28,4.57,1.92,6.85a20.67,20.67,0,0,0-.75,3.62c-.13,1-.81,1.2-1.58.76A19.2,19.2,0,0,1,49.08,59.32ZM54.62,78.1c1.14-1.72,2.4-3.36,3.67-5,.55-.69,1.18-1.47,2.27-.82l11.3,6.84c-2.48,4-5.71,5.43-9.84,4.73a12.16,12.16,0,0,1-7.52-4A1.9,1.9,0,0,1,54.62,78.1Zm-4.2,4.77c.3-.26,1.45,0,1.87.43a16.51,16.51,0,0,0,15.05,4.31c2.06-.37,3.87-2.25,5.71-3.57a13.66,13.66,0,0,0,2-2.25l2.84,2.06c.95.68.65,1.16-.23,1.56a18.11,18.11,0,0,1-1.69.75c-4.09,1.46-8.19,2.86-12.26,4.35-1.23.46-2.35,1.22-3.57,1.72a1.83,1.83,0,0,1-1.43-.13c-1.86-1.13-3.64-2.41-5.5-3.52-1.61-1-3.31-1.78-5.26-2.81A21.56,21.56,0,0,1,50.42,82.87ZM33.73,85.64l1.7-.56c1.4.55,2.86,1.09,4.27,1.72a1.07,1.07,0,0,1,.17,1c-.86.79-1.74,2-2.75,2.13-2.69.4-5.43.31-8,1.6-1.29.65-3.45-1.45-3.08-2.89.08-.32.7-.58,1.12-.73C29.35,87.12,31.55,86.39,33.73,85.64Zm-3.67-11.1c-.56-1.75,1.05-5.12,2.78-5.32a4.35,4.35,0,0,1,2.58.91c3.66,2.58,1.24,8.16.23,9.59-.17.24-1.23.17-1.63-.11A9.92,9.92,0,0,1,30.06,74.54Zm-.47,21.58c.2-1,3-1.88,4.27-1.29a37.45,37.45,0,0,1-2.34,3.38c-.22.27-1.34.28-1.43.09A3.69,3.69,0,0,1,29.59,96.12Zm10,21.74A18,18,0,0,0,45,120.69c2.35.81,2.33,3.16,3.57,4.65-.44.35-.84.94-1.32,1-4.34.64-7.76-1.27-10.72-4.16a20.75,20.75,0,0,1-5.4-9.13,15.36,15.36,0,0,1-.21-3.14C34.07,112.82,36.69,115.51,39.59,117.86Zm8.63-15.32a21.63,21.63,0,0,0-3.13,11.83,6.92,6.92,0,0,1-.41,1.64,6.93,6.93,0,0,1-1.67-.53,28.17,28.17,0,0,1-7.8-7.51,9,9,0,0,1-1.68-2.86,4.52,4.52,0,0,1,.3-3.13,69.17,69.17,0,0,1,4.81-6.64A10,10,0,0,1,41,93.82a59.53,59.53,0,0,1,6.48,3.66C50.23,99.53,50,99.62,48.22,102.54ZM43.78,90c0-.34.67-.75,1.08-1.16,1.47.65,2.73,1.1,3.88,1.74,1.89,1.05,3.71,2.22,5.56,3.35.59.37,1.3.88.44,1.52-.66.49-1.15,1.94-2.45.78A20.45,20.45,0,0,0,49.37,94c-1.5-.91-3.12-1.6-4.62-2.51A2.23,2.23,0,0,1,43.78,90Zm7.84,14.36c.43-.92,1.7-1,2-.12a32.32,32.32,0,0,1,1.5,5.94c.37,3.17-1.57,5.22-4,6.79-.89.57-1.68.17-1.9-.87a21.53,21.53,0,0,1-.23-2.67C49,110.13,50.27,107.23,51.62,104.35ZM51.76,121c.05-.27.57-.56.93-.67,5.67-1.8,7.88-10.26,5.5-14.91-.88-1.72-1.48-3.59-2.38-5.81.8-.45,2-1.58,2.5-1.32.89.47,1.44,1.71,1.95,2.72a15.38,15.38,0,0,1,1.22,9.06,20.23,20.23,0,0,1-7.58,13.55,2.19,2.19,0,0,1-2.09-.42C51.44,122.77,51.64,121.76,51.76,121Zm-26-54.17a8.74,8.74,0,0,1,6-3.58c6.29-1,12.92,3.65,15.39,8.5a28.6,28.6,0,0,1,1.45,4.3,3.4,3.4,0,0,1-1,4c-1,.92-1.82,2.19-2.92,3a3.53,3.53,0,0,1-2.55.56,9.64,9.64,0,0,1-2.62-1.46c.66-1.68,1.37-3.19,1.84-4.76,1.24-4.15-.28-7.49-3.35-10.22-4.14-3.67-9.65-1.73-11.32,3.33-1.47,4.47,0,7.8,3.18,10.67,1.06,1,.92,1.53-.18,1.9A22.53,22.53,0,0,1,25.3,84c-.34,0-1-.59-1.11-1C22.44,77.38,22.17,71.88,25.74,66.85Zm35.54,72.37c-2.14,3-4.66,5.5-8.88,5.16-3.11.3-5.7-1.35-8.18-2.9a44.6,44.6,0,0,1-11.39-10.31,59.65,59.65,0,0,1-7.39-11.71,42.44,42.44,0,0,1-3-10c-.67-3.49.47-6.65,2.18-9.63a1.29,1.29,0,0,1,1.13-.46,2,2,0,0,1,1,.93,9.05,9.05,0,0,1,.6,7.82c-1.26,3.56.05,7.08,1.67,10.37a24.45,24.45,0,0,0,7,8.46,16.58,16.58,0,0,0,13.78,3.21,3,3,0,0,1,3.06,1c2,2,4.4,3.78,6.63,5.63A12.17,12.17,0,0,1,61,138C61.27,138.25,61.46,139,61.28,139.22Zm4-12.08c-.47,1.9-.88,3.82-1.38,5.71a1.31,1.31,0,0,1-2.2.83c-1.82-1.47-3.54-3.09-5.42-4.49-1.24-.92-1-1.72,0-2.39,3.69-2.57,5.87-6.28,7.6-10.23A57.74,57.74,0,0,0,66,109.49l.33,0c.13,1.09.2,2.19.41,3.27s.6,2,.82,3a4.59,4.59,0,0,1,.14,1.94C66.93,120.88,66.1,124,65.31,127.14ZM82.53,133a17.64,17.64,0,0,0-1.73,5.71c-.24,1.3-.78,1.89-2,1.63-2.46-.55-4.9-1.18-7.3-1.91a36.52,36.52,0,0,1-3.82-1.63c-1-.43-.82-1.11-.59-2,.82-3,1.53-6,2.33-8.92.4-1.48.9-2.94,1.48-4.82,3.41,3.69,7.23,3.59,10.87,2.38,3.31-1.11,5.82-3.7,8.08-6.36a17.43,17.43,0,0,0,4.09-7.4,2.43,2.43,0,0,1,.61-1.18,7.61,7.61,0,0,1,1.41-.92c.14.64.54,1.37.38,1.92a13.93,13.93,0,0,1-1.55,3.29c-1.46,2.33-1.26,5-1.64,7.49A3.93,3.93,0,0,1,92,122.7,37.88,37.88,0,0,0,82.53,133Zm2.22,5.74c0-2.7,1.68-4.55,3.1-6.42a49,49,0,0,1,5.05-5.14c.9-.88,1.53-.87,2.33.41a26.92,26.92,0,0,0,3.68,4.25c.93.95,1.57,1.51.08,2.7-2.74,2.19-5.53,4.1-9,4.83-1.14.23-2.25.68-3.38,1C85.18,140.68,84.5,140.17,84.75,138.73Zm26.37,8.77c-4.22,2.43-8.72,3.8-13.81,2.45A25.61,25.61,0,0,1,88,145.7c-.32-.25-.83-.76-.76-.91a2,2,0,0,1,1-.95c1.89-.64,3.83-1.17,5.74-1.76,3.51-1.09,6.27-3.31,8.92-5.76a3.9,3.9,0,0,1,2.66-.87c1.38.09,2.73.85,4.1.88a65.44,65.44,0,0,0,7-.35c1.22-.1,2.42-.36,3.95-.6C118.65,141,115.59,144.91,111.12,147.5Zm8.37-16.2a53.72,53.72,0,0,1-8.25,1.25,6.29,6.29,0,0,1-2.22-.38,1.89,1.89,0,0,1-1.19-2.47c1-2.6,1.92-5,2.79-7.4a2.24,2.24,0,0,1,2.57-1.44,23.13,23.13,0,0,0,3,.49c2.61.2,4.12,2.23,4.51,4.66.14.83.26,1.66.4,2.49C121.27,129.85,120.79,131,119.49,131.3Zm-7.41-15.6c.28-.2.69-.62.81-.55a18.33,18.33,0,0,1,1.91,1.43c-.7.31-1.16.64-1.29.54A13.69,13.69,0,0,1,112.08,115.7Zm13.33,11.64-.63-.11c0-1-.44-2.36,0-3s1.88-.28,2.87-.37l.25.73Zm5.9-10.25c-1.11,2.85-1,2.9-4,3.19a29.12,29.12,0,0,1-5.06-1.55c-1-.51-1.59-1.82-2.47-2.66a59.88,59.88,0,0,0-5.42-4.91,5.78,5.78,0,0,1-2.62-4,37.72,37.72,0,0,0-1.66-5.23,1.72,1.72,0,0,1,.06-1.29,12.5,12.5,0,0,1,2.26-2.44,2,2,0,0,1,1.83-.22c5,3,10.53,5,14.59,9.31C131.42,110,132.84,113.17,131.31,117.09ZM146.88,104a45.37,45.37,0,0,1-3.13,7c-2,3-4.41,5.72-8.38,7.07a10.8,10.8,0,0,1,0-1.57c1.14-5.46-.9-9.9-5-13.21-3.14-2.53-6.81-4.42-10.26-6.58-.85-.53-1.79-.91-2.64-1.43a1.5,1.5,0,0,1-.41-2.53c.78-1,1.61-1.88,2.3-2.9.55-.8,1-.8,1.57-.1,1.18,1.42,2.3,2.89,3.54,4.26a27.06,27.06,0,0,0,9.9,7c3.68,1.52,7.31,1.43,11.08,1a7.52,7.52,0,0,1,1.85.3A11.9,11.9,0,0,1,146.88,104Zm-1.31-6.17a24.18,24.18,0,0,1-3.86.7,19.34,19.34,0,0,1-13.27-6.18c-1-1-1.88-2.05-2.8-3.1s-.91-1.75.5-2.29,3.07-1,4.57-1.61,3.09-1.48,4.69-2.08a3.05,3.05,0,0,1,2.25-.11,24.76,24.76,0,0,1,8.48,9.29,12.61,12.61,0,0,1,1.2,3.11C147.67,96.94,146.51,97.54,145.57,97.85Z"/>
</svg>